<svg xmlns="http://www.w3.org/2000/svg" xmlns:xlink="http://www.w3.org/1999/xlink" width="246" zoomAndPan="magnify" viewBox="0 0 184.5 54" height="72" preserveAspectRatio="xMidYMid meet" version="1.0"><defs><g/><clipPath id="95c5be615e"><path d="M 2 5 L 47 5 L 47 48.898438 L 2 48.898438 Z M 2 5 " clip-rule="nonzero"/></clipPath></defs><g fill="#4a4a4a" fill-opacity="1"><g transform="translate(52.11703, 35.935254)"><g><path d="M 5.5 -4.484375 L 13.3125 -4.484375 C 13.695312 -4.484375 13.984375 -4.46875 14.171875 -4.4375 C 14.367188 -4.414062 14.59375 -4.335938 14.84375 -4.203125 C 15.300781 -3.972656 15.53125 -3.316406 15.53125 -2.234375 C 15.53125 -1.046875 15.21875 -0.351562 14.59375 -0.15625 C 14.3125 -0.0507812 13.875 0 13.28125 0 L 3.25 0 C 2.0625 0 1.367188 -0.320312 1.171875 -0.96875 C 1.066406 -1.238281 1.015625 -1.664062 1.015625 -2.25 L 1.015625 -16.34375 C 1.015625 -17.207031 1.175781 -17.796875 1.5 -18.109375 C 1.820312 -18.421875 2.425781 -18.578125 3.3125 -18.578125 L 13.3125 -18.578125 C 13.695312 -18.578125 13.984375 -18.5625 14.171875 -18.53125 C 14.367188 -18.507812 14.59375 -18.429688 14.84375 -18.296875 C 15.300781 -18.054688 15.53125 -17.398438 15.53125 -16.328125 C 15.53125 -15.140625 15.21875 -14.445312 14.59375 -14.25 C 14.3125 -14.144531 13.875 -14.09375 13.28125 -14.09375 L 5.5 -14.09375 L 5.5 -11.53125 L 10.515625 -11.53125 C 10.898438 -11.53125 11.191406 -11.515625 11.390625 -11.484375 C 11.585938 -11.460938 11.8125 -11.382812 12.0625 -11.25 C 12.519531 -11.007812 12.75 -10.351562 12.75 -9.28125 C 12.75 -8.09375 12.425781 -7.398438 11.78125 -7.203125 C 11.5 -7.097656 11.0625 -7.046875 10.46875 -7.046875 L 5.5 -7.046875 Z M 5.5 -4.484375 "/></g></g></g><g fill="#4a4a4a" fill-opacity="1"><g transform="translate(68.290394, 35.935254)"><g><path d="M 8.484375 -3.515625 L 2.453125 -3.515625 C 1.515625 -3.515625 0.953125 -3.804688 0.765625 -4.390625 C 0.679688 -4.691406 0.640625 -5.078125 0.640625 -5.546875 C 0.640625 -6.023438 0.6875 -6.40625 0.78125 -6.6875 C 0.882812 -6.976562 1.046875 -7.179688 1.265625 -7.296875 C 1.566406 -7.453125 1.972656 -7.53125 2.484375 -7.53125 L 8.515625 -7.53125 C 9.460938 -7.53125 10.019531 -7.25 10.1875 -6.6875 C 10.289062 -6.382812 10.34375 -5.992188 10.34375 -5.515625 C 10.34375 -5.046875 10.296875 -4.660156 10.203125 -4.359375 C 10.109375 -4.066406 9.957031 -3.863281 9.75 -3.75 C 9.445312 -3.59375 9.023438 -3.515625 8.484375 -3.515625 Z M 8.484375 -3.515625 "/></g></g></g><g fill="#4a4a4a" fill-opacity="1"><g transform="translate(79.266987, 35.935254)"><g><path d="M 14.71875 -14.828125 C 15.164062 -13.929688 15.390625 -12.929688 15.390625 -11.828125 C 15.390625 -10.734375 15.164062 -9.742188 14.71875 -8.859375 C 14.28125 -7.972656 13.71875 -7.265625 13.03125 -6.734375 C 11.625 -5.660156 10.171875 -5.125 8.671875 -5.125 L 5.5 -5.125 L 5.5 -2.25 C 5.5 -1.863281 5.484375 -1.570312 5.453125 -1.375 C 5.429688 -1.1875 5.351562 -0.960938 5.21875 -0.703125 C 4.976562 -0.253906 4.320312 -0.03125 3.25 -0.03125 C 2.0625 -0.03125 1.367188 -0.34375 1.171875 -0.96875 C 1.066406 -1.25 1.015625 -1.6875 1.015625 -2.28125 L 1.015625 -16.34375 C 1.015625 -16.726562 1.023438 -17.019531 1.046875 -17.21875 C 1.078125 -17.414062 1.160156 -17.640625 1.296875 -17.890625 C 1.523438 -18.347656 2.179688 -18.578125 3.265625 -18.578125 L 8.6875 -18.578125 C 10.175781 -18.578125 11.625 -18.035156 13.03125 -16.953125 C 13.71875 -16.429688 14.28125 -15.722656 14.71875 -14.828125 Z M 8.6875 -9.609375 C 9.195312 -9.609375 9.695312 -9.789062 10.1875 -10.15625 C 10.675781 -10.53125 10.921875 -11.085938 10.921875 -11.828125 C 10.921875 -12.578125 10.675781 -13.140625 10.1875 -13.515625 C 9.695312 -13.898438 9.191406 -14.09375 8.671875 -14.09375 L 5.5 -14.09375 L 5.5 -9.609375 Z M 8.6875 -9.609375 "/></g></g></g><g fill="#4a4a4a" fill-opacity="1"><g transform="translate(95.288244, 35.935254)"><g><path d="M 10.078125 -13.203125 C 10.398438 -13.097656 10.664062 -12.921875 10.875 -12.671875 C 11.09375 -12.429688 11.203125 -12.039062 11.203125 -11.5 C 11.203125 -10.957031 11.039062 -10.363281 10.71875 -9.71875 C 10.394531 -9.082031 9.929688 -8.765625 9.328125 -8.765625 C 9.023438 -8.765625 8.734375 -8.832031 8.453125 -8.96875 C 8.171875 -9.101562 7.800781 -9.171875 7.34375 -9.171875 C 6.894531 -9.171875 6.46875 -9.007812 6.0625 -8.6875 C 5.664062 -8.375 5.46875 -7.988281 5.46875 -7.53125 L 5.46875 -2.203125 C 5.46875 -1.816406 5.453125 -1.523438 5.421875 -1.328125 C 5.398438 -1.140625 5.328125 -0.914062 5.203125 -0.65625 C 4.941406 -0.21875 4.28125 0 3.21875 0 C 2.40625 0 1.820312 -0.144531 1.46875 -0.4375 C 1.195312 -0.664062 1.046875 -1.023438 1.015625 -1.515625 C 1.015625 -1.691406 1.015625 -1.9375 1.015625 -2.25 L 1.015625 -11.15625 C 1.015625 -11.539062 1.023438 -11.828125 1.046875 -12.015625 C 1.078125 -12.210938 1.148438 -12.429688 1.265625 -12.671875 C 1.503906 -13.128906 2.164062 -13.359375 3.25 -13.359375 C 4.257812 -13.359375 4.890625 -13.160156 5.140625 -12.765625 C 5.328125 -12.503906 5.421875 -12.226562 5.421875 -11.9375 C 5.503906 -12.050781 5.625 -12.191406 5.78125 -12.359375 C 5.945312 -12.535156 6.289062 -12.765625 6.8125 -13.046875 C 7.34375 -13.335938 7.804688 -13.484375 8.203125 -13.484375 C 8.597656 -13.484375 8.929688 -13.460938 9.203125 -13.421875 C 9.472656 -13.378906 9.765625 -13.304688 10.078125 -13.203125 Z M 10.078125 -13.203125 "/></g></g></g><g fill="#4a4a4a" fill-opacity="1"><g transform="translate(106.873237, 35.935254)"><g><path d="M 13.890625 -8.265625 C 13.890625 -7.234375 13.628906 -6.46875 13.109375 -5.96875 C 12.597656 -5.46875 12.03125 -5.21875 11.40625 -5.21875 L 5.390625 -5.21875 C 5.390625 -4.75 5.671875 -4.351562 6.234375 -4.03125 C 6.796875 -3.707031 7.351562 -3.546875 7.90625 -3.546875 C 8.882812 -3.546875 9.65625 -3.648438 10.21875 -3.859375 L 10.5 -3.953125 C 10.894531 -4.140625 11.226562 -4.234375 11.5 -4.234375 C 12.039062 -4.234375 12.507812 -3.851562 12.90625 -3.09375 C 13.125 -2.632812 13.234375 -2.242188 13.234375 -1.921875 C 13.234375 -0.421875 11.429688 0.328125 7.828125 0.328125 C 6.578125 0.328125 5.46875 0.113281 4.5 -0.3125 C 3.53125 -0.75 2.773438 -1.320312 2.234375 -2.03125 C 1.171875 -3.394531 0.640625 -4.921875 0.640625 -6.609375 C 0.640625 -8.742188 1.328125 -10.445312 2.703125 -11.71875 C 4.078125 -13 5.796875 -13.640625 7.859375 -13.640625 C 10.203125 -13.640625 11.925781 -12.8125 13.03125 -11.15625 C 13.601562 -10.269531 13.890625 -9.304688 13.890625 -8.265625 Z M 8.546875 -7.53125 C 9.179688 -7.53125 9.5 -7.800781 9.5 -8.34375 C 9.5 -8.726562 9.347656 -9.035156 9.046875 -9.265625 C 8.753906 -9.503906 8.332031 -9.625 7.78125 -9.625 C 7.238281 -9.625 6.695312 -9.398438 6.15625 -8.953125 C 5.613281 -8.503906 5.34375 -8.03125 5.34375 -7.53125 Z M 8.546875 -7.53125 "/></g></g></g><g fill="#4a4a4a" fill-opacity="1"><g transform="translate(121.398839, 35.935254)"><g><path d="M 1.109375 -1.1875 C 0.796875 -1.394531 0.640625 -1.71875 0.640625 -2.15625 C 0.640625 -2.59375 0.957031 -3.257812 1.59375 -4.15625 C 1.78125 -4.445312 2.082031 -4.59375 2.5 -4.59375 C 2.914062 -4.59375 3.476562 -4.382812 4.1875 -3.96875 C 4.894531 -3.550781 5.535156 -3.34375 6.109375 -3.34375 C 7.140625 -3.34375 7.65625 -3.546875 7.65625 -3.953125 C 7.65625 -4.273438 7.085938 -4.507812 5.953125 -4.65625 C 4.890625 -4.8125 3.832031 -5.210938 2.78125 -5.859375 C 2.289062 -6.160156 1.882812 -6.632812 1.5625 -7.28125 C 1.25 -7.9375 1.09375 -8.710938 1.09375 -9.609375 C 1.09375 -12.273438 2.925781 -13.609375 6.59375 -13.609375 C 7.789062 -13.609375 9.023438 -13.320312 10.296875 -12.75 C 10.878906 -12.476562 11.171875 -12.140625 11.171875 -11.734375 C 11.171875 -11.328125 10.984375 -10.828125 10.609375 -10.234375 C 10.242188 -9.648438 9.867188 -9.359375 9.484375 -9.359375 C 9.273438 -9.359375 8.894531 -9.484375 8.34375 -9.734375 C 7.800781 -9.984375 7.207031 -10.109375 6.5625 -10.109375 C 5.5625 -10.109375 5.0625 -9.921875 5.0625 -9.546875 C 5.0625 -9.046875 5.640625 -8.71875 6.796875 -8.5625 C 7.910156 -8.445312 8.988281 -8.128906 10.03125 -7.609375 C 10.519531 -7.367188 10.929688 -6.957031 11.265625 -6.375 C 11.597656 -5.789062 11.765625 -5.054688 11.765625 -4.171875 C 11.765625 -3.296875 11.597656 -2.550781 11.265625 -1.9375 C 10.929688 -1.320312 10.472656 -0.863281 9.890625 -0.5625 C 8.804688 -0.03125 7.445312 0.234375 5.8125 0.234375 C 4.1875 0.234375 2.617188 -0.238281 1.109375 -1.1875 Z M 1.109375 -1.1875 "/></g></g></g><g fill="#4a4a4a" fill-opacity="1"><g transform="translate(133.795035, 35.935254)"><g><path d="M 13.890625 -8.265625 C 13.890625 -7.234375 13.628906 -6.46875 13.109375 -5.96875 C 12.597656 -5.46875 12.03125 -5.21875 11.40625 -5.21875 L 5.390625 -5.21875 C 5.390625 -4.75 5.671875 -4.351562 6.234375 -4.03125 C 6.796875 -3.707031 7.351562 -3.546875 7.90625 -3.546875 C 8.882812 -3.546875 9.65625 -3.648438 10.21875 -3.859375 L 10.5 -3.953125 C 10.894531 -4.140625 11.226562 -4.234375 11.5 -4.234375 C 12.039062 -4.234375 12.507812 -3.851562 12.90625 -3.09375 C 13.125 -2.632812 13.234375 -2.242188 13.234375 -1.921875 C 13.234375 -0.421875 11.429688 0.328125 7.828125 0.328125 C 6.578125 0.328125 5.46875 0.113281 4.5 -0.3125 C 3.53125 -0.75 2.773438 -1.320312 2.234375 -2.03125 C 1.171875 -3.394531 0.640625 -4.921875 0.640625 -6.609375 C 0.640625 -8.742188 1.328125 -10.445312 2.703125 -11.71875 C 4.078125 -13 5.796875 -13.640625 7.859375 -13.640625 C 10.203125 -13.640625 11.925781 -12.8125 13.03125 -11.15625 C 13.601562 -10.269531 13.890625 -9.304688 13.890625 -8.265625 Z M 8.546875 -7.53125 C 9.179688 -7.53125 9.5 -7.800781 9.5 -8.34375 C 9.5 -8.726562 9.347656 -9.035156 9.046875 -9.265625 C 8.753906 -9.503906 8.332031 -9.625 7.78125 -9.625 C 7.238281 -9.625 6.695312 -9.398438 6.15625 -8.953125 C 5.613281 -8.503906 5.34375 -8.03125 5.34375 -7.53125 Z M 8.546875 -7.53125 "/></g></g></g><g fill="#4a4a4a" fill-opacity="1"><g transform="translate(148.320636, 35.935254)"><g><path d="M 8.4375 -13.359375 C 10.125 -13.359375 11.53125 -12.710938 12.65625 -11.421875 C 13.78125 -10.128906 14.34375 -8.550781 14.34375 -6.6875 L 14.34375 -2.234375 C 14.34375 -1.835938 14.328125 -1.539062 14.296875 -1.34375 C 14.273438 -1.15625 14.207031 -0.941406 14.09375 -0.703125 C 13.851562 -0.253906 13.191406 -0.03125 12.109375 -0.03125 C 10.910156 -0.03125 10.21875 -0.34375 10.03125 -0.96875 C 9.9375 -1.25 9.890625 -1.675781 9.890625 -2.25 L 9.890625 -6.71875 C 9.890625 -7.40625 9.6875 -7.941406 9.28125 -8.328125 C 8.882812 -8.722656 8.351562 -8.921875 7.6875 -8.921875 C 7.019531 -8.921875 6.476562 -8.71875 6.0625 -8.3125 C 5.65625 -7.90625 5.453125 -7.375 5.453125 -6.71875 L 5.453125 -2.234375 C 5.453125 -1.835938 5.4375 -1.539062 5.40625 -1.34375 C 5.382812 -1.15625 5.304688 -0.941406 5.171875 -0.703125 C 4.953125 -0.253906 4.300781 -0.03125 3.21875 -0.03125 C 2.15625 -0.03125 1.503906 -0.253906 1.265625 -0.703125 C 1.148438 -0.960938 1.078125 -1.1875 1.046875 -1.375 C 1.023438 -1.570312 1.015625 -1.863281 1.015625 -2.25 L 1.015625 -11.234375 C 1.015625 -11.597656 1.023438 -11.878906 1.046875 -12.078125 C 1.078125 -12.273438 1.160156 -12.488281 1.296875 -12.71875 C 1.523438 -13.144531 2.175781 -13.359375 3.25 -13.359375 C 4.28125 -13.359375 4.910156 -13.160156 5.140625 -12.765625 C 5.304688 -12.484375 5.390625 -12.140625 5.390625 -11.734375 C 5.460938 -11.847656 5.613281 -12.015625 5.84375 -12.234375 C 6.082031 -12.460938 6.3125 -12.640625 6.53125 -12.765625 C 7.113281 -13.160156 7.75 -13.359375 8.4375 -13.359375 Z M 8.4375 -13.359375 "/></g></g></g><g fill="#4a4a4a" fill-opacity="1"><g transform="translate(163.682797, 35.935254)"><g><path d="M 1.109375 -1.1875 C 0.796875 -1.394531 0.640625 -1.71875 0.640625 -2.15625 C 0.640625 -2.59375 0.957031 -3.257812 1.59375 -4.15625 C 1.78125 -4.445312 2.082031 -4.59375 2.5 -4.59375 C 2.914062 -4.59375 3.476562 -4.382812 4.1875 -3.96875 C 4.894531 -3.550781 5.535156 -3.34375 6.109375 -3.34375 C 7.140625 -3.34375 7.65625 -3.546875 7.65625 -3.953125 C 7.65625 -4.273438 7.085938 -4.507812 5.953125 -4.65625 C 4.890625 -4.8125 3.832031 -5.210938 2.78125 -5.859375 C 2.289062 -6.160156 1.882812 -6.632812 1.5625 -7.28125 C 1.25 -7.9375 1.09375 -8.710938 1.09375 -9.609375 C 1.09375 -12.273438 2.925781 -13.609375 6.59375 -13.609375 C 7.789062 -13.609375 9.023438 -13.320312 10.296875 -12.75 C 10.878906 -12.476562 11.171875 -12.140625 11.171875 -11.734375 C 11.171875 -11.328125 10.984375 -10.828125 10.609375 -10.234375 C 10.242188 -9.648438 9.867188 -9.359375 9.484375 -9.359375 C 9.273438 -9.359375 8.894531 -9.484375 8.34375 -9.734375 C 7.800781 -9.984375 7.207031 -10.109375 6.5625 -10.109375 C 5.5625 -10.109375 5.0625 -9.921875 5.0625 -9.546875 C 5.0625 -9.046875 5.640625 -8.71875 6.796875 -8.5625 C 7.910156 -8.445312 8.988281 -8.128906 10.03125 -7.609375 C 10.519531 -7.367188 10.929688 -6.957031 11.265625 -6.375 C 11.597656 -5.789062 11.765625 -5.054688 11.765625 -4.171875 C 11.765625 -3.296875 11.597656 -2.550781 11.265625 -1.9375 C 10.929688 -1.320312 10.472656 -0.863281 9.890625 -0.5625 C 8.804688 -0.03125 7.445312 0.234375 5.8125 0.234375 C 4.1875 0.234375 2.617188 -0.238281 1.109375 -1.1875 Z M 1.109375 -1.1875 "/></g></g></g><g fill="#4a4a4a" fill-opacity="1"><g transform="translate(176.078993, 35.935254)"><g><path d="M 1.015625 -11.125 C 1.015625 -11.507812 1.023438 -11.800781 1.046875 -12 C 1.078125 -12.195312 1.148438 -12.421875 1.265625 -12.671875 C 1.503906 -13.109375 2.164062 -13.328125 3.25 -13.328125 C 4.050781 -13.328125 4.625 -13.1875 4.96875 -12.90625 C 5.25 -12.664062 5.398438 -12.300781 5.421875 -11.8125 C 5.441406 -11.644531 5.453125 -11.398438 5.453125 -11.078125 L 5.453125 -2.203125 C 5.453125 -1.816406 5.4375 -1.523438 5.40625 -1.328125 C 5.382812 -1.140625 5.304688 -0.914062 5.171875 -0.65625 C 4.953125 -0.21875 4.300781 0 3.21875 0 C 2.15625 0 1.503906 -0.226562 1.265625 -0.6875 C 1.148438 -0.9375 1.078125 -1.15625 1.046875 -1.34375 C 1.023438 -1.53125 1.015625 -1.828125 1.015625 -2.234375 Z M 5.1875 -15.8125 C 5.0625 -15.570312 4.835938 -15.398438 4.515625 -15.296875 C 4.191406 -15.203125 3.765625 -15.15625 3.234375 -15.15625 C 2.703125 -15.15625 2.273438 -15.203125 1.953125 -15.296875 C 1.628906 -15.398438 1.40625 -15.578125 1.28125 -15.828125 C 1.15625 -16.085938 1.078125 -16.3125 1.046875 -16.5 C 1.023438 -16.695312 1.015625 -16.988281 1.015625 -17.375 C 1.015625 -17.769531 1.023438 -18.0625 1.046875 -18.25 C 1.078125 -18.445312 1.148438 -18.664062 1.265625 -18.90625 C 1.503906 -19.363281 2.164062 -19.59375 3.25 -19.59375 C 4.3125 -19.59375 4.953125 -19.363281 5.171875 -18.90625 C 5.304688 -18.65625 5.382812 -18.429688 5.40625 -18.234375 C 5.4375 -18.035156 5.453125 -17.742188 5.453125 -17.359375 C 5.453125 -16.972656 5.4375 -16.679688 5.40625 -16.484375 C 5.382812 -16.285156 5.3125 -16.0625 5.1875 -15.8125 Z M 5.1875 -15.8125 "/></g></g></g><g clip-path="url(#95c5be615e)"><path fill="#206bc4" d="M 45.359375 15.03125 C 44.273438 10.734375 40.949219 7.390625 36.675781 6.300781 C 28.671875 5.003906 20.53125 5.003906 12.527344 6.300781 C 8.253906 7.390625 4.929688 10.734375 3.84375 15.03125 C 2.554688 23.082031 2.554688 31.269531 3.84375 39.320312 C 4.929688 43.617188 8.253906 46.960938 12.527344 48.050781 C 20.53125 49.347656 28.671875 49.347656 36.675781 48.050781 C 40.949219 46.960938 44.273438 43.617188 45.359375 39.320312 C 46.644531 31.269531 46.644531 23.082031 45.359375 15.03125 Z M 24.125 28.746094 C 22.226562 31.746094 19.648438 34.339844 16.597656 36.25 C 15.578125 36.863281 14.359375 36.863281 13.339844 36.316406 C 12.324219 35.773438 11.714844 34.75 11.644531 33.589844 C 11.644531 32.429688 12.257812 31.335938 13.273438 30.792969 C 14.832031 29.835938 16.257812 28.609375 17.410156 27.175781 C 16.191406 25.742188 14.832031 24.582031 13.273438 23.558594 C 11.714844 22.671875 11.238281 20.695312 12.121094 19.195312 C 13.003906 17.695312 15.035156 17.214844 16.53125 18.101562 C 19.582031 20.011719 22.089844 22.539062 24.058594 25.539062 C 24.738281 26.492188 24.738281 27.789062 24.125 28.746094 Z M 34.910156 35.363281 L 27.179688 35.363281 C 25.753906 35.363281 24.601562 34.679688 24.601562 33.316406 C 24.601562 31.953125 25.753906 31.269531 27.179688 31.269531 L 34.910156 31.269531 C 36.335938 31.269531 37.488281 31.953125 37.488281 33.316406 C 37.488281 34.679688 36.335938 35.363281 34.910156 35.363281 Z M 34.910156 35.363281 " fill-opacity="1" fill-rule="nonzero"/></g></svg>